<svg height="512" viewBox="0 0 64 64" width="512" xmlns="http://www.w3.org/2000/svg"><path d="m54 16h-44v4h44zm-40 3h-2v-2h2zm4 0h-2v-2h2zm4 0h-2v-2h2z"/><path d="m32 48h22v-26h-22zm20-4h-6v-2h6zm-14-4v-2h8v2zm14 0h-4v-2h4zm-18-15a1 1 0 0 1 1-1h16a1 1 0 0 1 1 1v10a1 1 0 0 1 -1 1h-16a1 1 0 0 1 -1-1zm0 13h2v2h-2zm0 4h10v2h-10z"/><path d="m45.311 33.716.203.284h3.405l-1.918-2.398z"/><path d="m36.943 34h6.114l-3.057-4.279z"/><path d="m60 54h-21v1a3 3 0 0 1 -3 3h-8a3 3 0 0 1 -3-3v-1h-21v3a3 3 0 0 0 3 3h50a3 3 0 0 0 3-3z"/><path d="m40.813 27.419 3.29 4.605 2.116-2.648a1 1 0 0 1 1.562 0l2.219 2.773v-6.149h-14v5.88l3.187-4.461a1.035 1.035 0 0 1 1.626 0z"/><path d="m6 52h52v-37a3 3 0 0 0 -3-3h-46a3 3 0 0 0 -3 3zm2-37a1 1 0 0 1 1-1h46a1 1 0 0 1 1 1v34a1 1 0 0 1 -1 1h-46a1 1 0 0 1 -1-1z"/><path d="m30 22h-20v26h20zm-8 2h2v2h-2zm5 3v2h-3v-2zm-11 13v-2h6v2zm2 1v2h-2v-2zm-1-5v-2h8v2zm2-4h-5v-2h5zm-1-3v-2h4v2zm-2-5h4v2h-4zm0 5h-2v-2h2zm-4-5h2v2h-2zm2 16h-2v-2h2zm1-4h-2v-2h2zm5 10h-4v-2h4zm0-5h4v2h-4zm8 5h-6v-2h6zm0-3h-2v-2h2zm0-11h-7v-2h7z"/><path d="m28 56h8a1 1 0 0 0 1-1v-1h-10v1a1 1 0 0 0 1 1z"/></svg>